<svg id="Filled_expand" height="512" viewBox="0 0 512 512" width="512" xmlns="http://www.w3.org/2000/svg" data-name="Filled expand"><g><circle cx="256" cy="256" fill="#79d8eb" r="184"/><circle cx="256" cy="256" fill="#dcf9fe" r="144"/><path d="m495.338 168h-40l-48.1 4.373a80 80 0 0 1 -66.707-26.155l-24.886-27.651a32 32 0 0 1 1.158-44.035l2.535-2.532 48 32-48-32h-88a47.342 47.342 0 0 1 -47.338-48h150.671l120.667 64h40z" fill="#ffd4cf"/><g><path d="m495.338 96h-40a8 8 0 0 1 -3.749-.933l-63.338-33.593 7.5-14.135 61.577 32.661h38.01z"/><path d="m400.1 180.7a88.468 88.468 0 0 1 -65.515-29.126l-24.885-27.656a40.005 40.005 0 0 1 -6.411-43.918h-71.946a55.342 55.342 0 0 1 -55.337-56.111 8 8 0 0 1 8-7.889h150.665a7.993 7.993 0 0 1 3.749.933l41.329 21.92-7.5 14.135-39.568-20.988h-140a39.378 39.378 0 0 0 38.666 32h87.953a8.012 8.012 0 0 1 4.449 1.323l.01.006.015.011 48 32a8 8 0 1 1 -8.875 13.312l-42.39-28.252a24 24 0 0 0 1.085 30.818l24.886 27.653a72.337 72.337 0 0 0 60.037 23.538l48.1-4.372c.24-.022.482-.033.724-.033h40v16h-39.641l-47.736 4.34q-3.935.356-7.864.356z"/></g><path d="m16.662 344h40l48.1-4.373a80 80 0 0 1 66.707 26.155l24.886 27.651a32 32 0 0 1 -1.158 44.035l-2.535 2.532-48-32 48 32h87.995a47.342 47.342 0 0 1 47.343 48h-150.671l-120.667-64h-40z" fill="#ffd4cf"/><g><path d="m328 496h-150.671a7.993 7.993 0 0 1 -3.749-.933l-118.908-63.067h-38.01v-16h40a8 8 0 0 1 3.749.933l118.908 63.067h140a39.378 39.378 0 0 0 -38.666-32h-32.653v-16h32.657a55.342 55.342 0 0 1 55.337 56.111 8 8 0 0 1 -7.994 7.889z"/><path d="m192.66 448a7.988 7.988 0 0 1 -4.405-1.323l-.011-.007-.015-.011-48-32a8 8 0 1 1 8.875-13.312l42.391 28.26a24 24 0 0 0 -1.085-30.818l-24.89-27.656a72.329 72.329 0 0 0 -60.037-23.533l-48.1 4.372c-.24.022-.482.033-.724.033h-40v-16.005h39.641l47.736-4.34a88.417 88.417 0 0 1 73.377 28.77l24.887 27.652a40 40 0 0 1 6.41 43.918h23.29v16z"/></g><path d="m352 224h-64v-64h-64v64h-64v64h64v64h64v-64h64z" fill="#79d8eb"/><path d="m288 360h-64a8 8 0 0 1 -8-8v-56h-56a8 8 0 0 1 -8-8v-64a8 8 0 0 1 8-8h24v16h-16v48h56a8 8 0 0 1 8 8v56h48v-56a8 8 0 0 1 8-8h56v-48h-56a8 8 0 0 1 -8-8v-56h-48v56a8 8 0 0 1 -8 8h-24v-16h16v-56a8 8 0 0 1 8-8h64a8 8 0 0 1 8 8v56h56a8 8 0 0 1 8 8v64a8 8 0 0 1 -8 8h-56v56a8 8 0 0 1 -8 8z"/><path d="m112.447 306a151.266 151.266 0 0 1 -8.447-50c0-83.813 68.187-152 152-152a153.459 153.459 0 0 1 16.882.932l-1.764 15.9a137.73 137.73 0 0 0 -15.118-.832c-74.991 0-136 61.009-136 136a135.311 135.311 0 0 0 7.552 44.721z"/><path d="m256 408a153.472 153.472 0 0 1 -16.882-.932l1.764-15.9a137.73 137.73 0 0 0 15.118.832c74.991 0 136-61.009 136-136a135.316 135.316 0 0 0 -7.552-44.721l15.105-5.279a151.266 151.266 0 0 1 8.447 50c0 83.813-68.187 152-152 152z"/><path d="m347.832 424.655-7.664-14.046a176.3 176.3 0 0 0 85.784-200.527 8 8 0 0 1 11.97-8.862l38.324 24-8.492 13.56-22.275-13.949a192.293 192.293 0 0 1 -97.647 199.824z"/><path d="m76.359 304a7.985 7.985 0 0 1 -3.806-.964l-44.36-24 7.614-14.072 29.822 16.136a194.1 194.1 0 0 1 -1.629-25.1 192.012 192.012 0 0 1 108.518-172.947l6.964 14.4a176.313 176.313 0 0 0 -95.312 196.816 8 8 0 0 1 -7.811 9.731z"/></g></svg>